<?xml version="1.0" encoding="UTF-8" standalone="no"?>
<!-- Created with Inkscape (http://www.inkscape.org/) -->

<svg
   width="53.633282mm"
   height="7.9044313mm"
   viewBox="0 0 53.633282 7.9044313"
   version="1.1"
   id="svg1"
   xmlns:inkscape="http://www.inkscape.org/namespaces/inkscape"
   xmlns:sodipodi="http://sodipodi.sourceforge.net/DTD/sodipodi-0.dtd"
   xmlns="http://www.w3.org/2000/svg"
   xmlns:svg="http://www.w3.org/2000/svg">
  <sodipodi:namedview
     id="namedview1"
     pagecolor="#505050"
     bordercolor="#ffffff"
     borderopacity="1"
     inkscape:showpageshadow="0"
     inkscape:pageopacity="0"
     inkscape:pagecheckerboard="1"
     inkscape:deskcolor="#505050"
     inkscape:document-units="mm">
    <inkscape:page
       x="0"
       y="0"
       width="53.633282"
       height="7.9044313"
       id="page2"
       margin="0"
       bleed="0" />
  </sodipodi:namedview>
  <defs
     id="defs1" />
  <g
     inkscape:label="Layer 1"
     inkscape:groupmode="layer"
     id="layer1"
     transform="translate(-26.263342,-56.886374)">
    <path
       style="font-size:42.6667px;font-family:Audiowide;-inkscape-font-specification:Audiowide;white-space:pre;fill:#494e91"
       d="m 123.95054,232.6703 h -17.10418 v -5.45834 h 17.10418 z m 2.4375,12.20834 h -19.54168 q -1.125,0 -2.45833,-0.39583 -1.33334,-0.39584 -2.47917,-1.29167 -1.125,-0.91667 -1.89584,-2.35417 -0.749997,-1.45833 -0.749997,-3.5625 v -19.54168 q 0,-0.5625 0.208334,-1.0625 0.208333,-0.5 0.562503,-0.87501 0.375,-0.375 0.875,-0.58333 0.5,-0.20833 1.08333,-0.20833 h 24.39585 v 5.41667 h -21.70835 v 16.85418 q 0,1.0625 0.5625,1.625 0.5625,0.5625 1.64584,0.5625 h 19.50001 z m 24.58336,0 h -5.41667 v -14.93751 q 0,-1.0625 -0.5625,-1.60417 -0.56251,-0.5625 -1.66667,-0.5625 h -7.04167 v 17.10418 h -5.41668 v -19.83335 q 0,-0.5625 0.20834,-1.04167 0.20833,-0.5 0.58333,-0.85416 0.375,-0.375 0.875,-0.58334 0.5,-0.20833 1.0625,-0.20833 h 9.77084 q 1.125,0 2.41667,0.39583 1.29167,0.39584 2.45834,1.27084 v -1.66667 h 7.33334 q 0.77083,0 1.625,0.1875 0.85417,0.16667 1.6875,0.54167 0.85417,0.375 1.625,0.97916 0.77083,0.58334 1.35417,1.43751 0.58333,0.83333 0.9375,1.9375 0.35417,1.10416 0.35417,2.5 v 14.93751 h -5.41668 v -14.93751 q 0,-1.0625 -0.54166,-1.60417 -0.52084,-0.5625 -1.625,-0.5625 h -4.87501 q 0.27084,1 0.27084,2.16667 z m 37.27086,0 h -5.41668 v -14.93751 q 0,-1.0625 -0.5625,-1.60417 -0.5625,-0.5625 -1.66666,-0.5625 h -7.04168 v 17.10418 h -5.41667 v -19.83335 q 0,-0.5625 0.20834,-1.04167 0.20833,-0.5 0.58333,-0.85416 0.375,-0.375 0.875,-0.58334 0.5,-0.20833 1.0625,-0.20833 h 9.77084 q 1.125,0 2.41667,0.39583 1.29167,0.39584 2.45834,1.27084 v -1.66667 h 7.33334 q 0.77083,0 1.625,0.1875 0.85416,0.16667 1.6875,0.54167 0.85417,0.375 1.625,0.97916 0.77083,0.58334 1.35417,1.43751 0.58333,0.83333 0.9375,1.9375 0.35416,1.10416 0.35416,2.5 v 14.93751 h -5.41667 v -14.93751 q 0,-1.0625 -0.54166,-1.60417 -0.52084,-0.5625 -1.625,-0.5625 h -4.87501 q 0.27084,1 0.27084,2.16667 z m 41.39586,-15.06251 q 0,1.125 -0.39583,2.4375 -0.39583,1.29167 -1.29167,2.41667 -0.875,1.10417 -2.3125,1.85417 -1.41667,0.75 -3.45833,0.75 h -9.77084 v -5.14584 h 9.77084 q 1.10416,0 1.70833,-0.66667 0.60417,-0.6875 0.60417,-1.6875 0,-1.0625 -0.6875,-1.66667 -0.66667,-0.60416 -1.625,-0.60416 h -9.77084 q -1.10417,0 -1.70834,0.6875 -0.60417,0.66666 -0.60417,1.66667 v 7.5625 q 0,1.08334 0.66667,1.6875 0.6875,0.60417 1.6875,0.60417 h 9.72918 v 5.16667 h -9.77084 q -1.12501,0 -2.43751,-0.39583 -1.29166,-0.39584 -2.41667,-1.27084 -1.10416,-0.89583 -1.85416,-2.3125 -0.75,-1.4375 -0.75,-3.47917 v -7.60417 q 0,-1.125 0.39583,-2.41667 0.39583,-1.3125 1.27083,-2.41667 0.89584,-1.125 2.31251,-1.875 1.4375,-0.75 3.47917,-0.75 h 9.77084 q 1.125,0 2.41666,0.39583 1.31251,0.39584 2.41667,1.29167 1.125,0.875 1.875,2.3125 0.75,1.41667 0.75,3.45834 z m 24.12502,-2.04167 h -9.45834 v 17.10418 h -5.47917 v -17.10418 h -7.04167 v -5.41667 h 7.04167 v -7.35417 h 5.47917 v 7.35417 h 9.45834 z m 23.14586,0 h -12.18751 q -1.10417,0 -1.66667,0.5625 -0.5625,0.54167 -0.5625,1.60417 v 14.93751 h -5.41667 v -14.93751 q 0,-1.39584 0.35417,-2.5 0.35416,-1.10417 0.9375,-1.9375 0.60416,-0.85417 1.375,-1.43751 0.77083,-0.60416 1.60417,-0.97916 0.85416,-0.375 1.70833,-0.54167 0.875,-0.1875 1.625,-0.1875 H 276.909 Z m 25.06251,9.64584 q 0,1.125 -0.39583,2.4375 -0.39584,1.29167 -1.29167,2.41667 -0.875,1.10417 -2.3125,1.85417 -1.41667,0.75 -3.45834,0.75 h -9.77084 q -1.125,0 -2.4375,-0.39583 -1.29167,-0.39584 -2.41667,-1.27084 -1.10417,-0.89583 -1.85417,-2.3125 -0.75,-1.4375 -0.75,-3.47917 0,-1.125 0.39584,-2.4375 0.39583,-1.3125 1.27083,-2.41667 0.89583,-1.125 2.3125,-1.875 1.4375,-0.75 3.47917,-0.75 h 9.77084 v 5.16667 h -9.77084 q -1.10417,0 -1.70833,0.6875 -0.60417,0.66667 -0.60417,1.66667 0,1.0625 0.6875,1.66667 0.70833,0.58333 1.66667,0.58333 h 9.72917 q 1.10417,0 1.70834,-0.66667 0.60416,-0.66667 0.60416,-1.66667 v -7.5625 q 0,-1.0625 -0.66666,-1.6875 -0.64584,-0.625 -1.64584,-0.625 h -11.89584 v -5.14584 h 11.89584 q 1.125,0 2.41667,0.39583 1.3125,0.39584 2.41667,1.29167 1.125,0.875 1.875,2.3125 0.75,1.41667 0.75,3.45834 z"
       id="text1"
       transform="scale(0.26458333)"
       aria-label="Emmetra"
       inkscape:export-filename="emmetra_logo.svg"
       inkscape:export-xdpi="96"
       inkscape:export-ydpi="96" />
  </g>
</svg>
